<?xml version="1.0"?>
<svg width="350" height="100" xmlns="http://www.w3.org/2000/svg" xmlns:svg="http://www.w3.org/2000/svg" xmlns:xlink="http://www.w3.org/1999/xlink">
 <!-- Created with SVG-edit - https://github.com/SVG-Edit/svgedit-->
 <defs>
  <symbol height="472px" id="svg_114" version="1.1" viewBox="152 746 660 472" width="660px" xmlns="http://www.w3.org/2000/svg">
   <g>
    <g fill="#74cae2" fill-opacity="0.97">
     <path d="m152.77,745.22c-0.1,0 -0.2,0.04 -0.27,0.11c-0.07,0.07 -0.11,0.17 -0.11,0.27l0.14,478.12c0,0.21 0.17,0.38 0.38,0.38l669.36,-0.2c0.1,0 0.2,-0.04 0.27,-0.11c0.07,-0.07 0.11,-0.17 0.11,-0.27l-0.14,-478.11c0,-0.21 -0.17,-0.38 -0.38,-0.38l-669.36,0.2l0,-0.01z"/>
    </g>
    <g fill-opacity="0.43">
     <path d="m743.59,1139.7l-2.2,0.39q-6.97,0.55 -25.87,1.07q-9.45,0.26 -21.89,0.51q-33.7,0.62 -44.02,0.73q-17.02,0.24 -35.39,0.45q-8.35,0.12 -58.14,0.54q-40.77,0.31 -86.92,0.48q-44.05,0.14 -80.25,0.1q-18.11,-0.02 -34.25,-0.08q-9.3,-0.01 -44.02,-0.3q-58.96,-0.66 -48.98,-1.74q4.39,-0.53 21.74,-1.05q8.67,-0.26 20.58,-0.52q4.13,-0.13 42.65,-0.75q64.01,-0.95 155.29,-1.44q45.64,-0.21 84.46,-0.24q19.41,-0.02 37.12,0.01q42.78,0.12 49.3,0.2q30.3,0.2 47.66,0.55q8.67,0.17 14.11,0.38q4.74,0.08 9.02,0.71"/>
    </g>
    <g fill="#0b0b09">
     <path d="m379.45,1106.7l22.39,22.21l0.33,0.44q0.29,0.28 1.77,0.9q6.55,2.56 7.35,2.95q1.69,0.74 2.8,1.36q2.87,1.58 2.07,2.62q-1.09,1.47 -8.18,2.49q-2,0.28 -3.96,0.46l-8.25,0.64q-1.52,0.09 -2.62,-0.31q-1.8,-0.63 -3.26,-2.94q-0.7,-0.78 -4.64,-9.08q-0.74,-1.4 -1.43,-2.27q-1.68,-2.16 -3.47,-2.12q-1.32,-0.01 -2.44,1.22l-0.23,11.97l-1.59,-0.06q0.34,-8.33 0.14,-11.18q0.03,-1.96 -1.25,-8.16q-0.15,-1.22 -0.04,-2.3q0.32,-3.31 4.5,-8.82l0.01,-0.02z"/>
    </g>
    <g fill="#ffba9a">
     <path d="m377.74,1107.1l15.61,2.63l0.38,0.35q2.4,2.43 4.98,9.43q3.69,10.11 3.19,12.27q-0.17,0.96 -1.38,0.91q0.99,2.02 0.36,3.03q-0.49,0.82 -2.02,1.47q-2.56,1.04 -5.26,0.98q-1.94,-0.08 -3.27,-1.44q-1.14,-1.16 -1.95,-3.33q-0.18,-0.09 -2.89,-9.28q-0.67,-2.03 -1.35,-3.38q-0.65,-1.28 -1.48,-2.39q-0.32,-0.55 -3.35,-3.85q-0.61,-0.75 -0.96,-1.58q-0.84,-1.77 -0.61,-5.81l0,-0.01z"/>
    </g>
    <g fill="#0b0b09">
     <path d="m377.28,1110.2l22.55,22.37q0.06,0.21 0.17,0.28q0.29,0.28 1.77,0.9q6.73,2.63 7.28,2.92q1.79,0.78 2.87,1.39q2.87,1.58 2.07,2.62q-1.09,1.47 -8.18,2.49q-2,0.28 -3.96,0.46l-8.25,0.64q-1.52,0.09 -2.62,-0.31q-1.8,-0.63 -3.27,-2.94q-0.69,-0.78 -4.63,-9.08q-0.75,-1.4 -1.43,-2.26q-1.68,-2.17 -3.48,-2.13q-1.31,-0.01 -2.43,1.22l-0.23,11.97l-1.59,-0.06q0.34,-8.33 0.14,-11.18q0.03,-1.96 -1.25,-8.16q-0.15,-1.22 -0.04,-2.3q0.32,-3.31 4.5,-8.82l0.01,-0.02z"/>
    </g>
    <g fill="#68868f">
     <path d="m364,1059.1l24.55,6.55l5.55,44.39l-15.95,1.37l-0.41,-0.03q-6.43,-14.19 -8.84,-23.77q-2.78,-10.5 -4.9,-28.47l0,-0.04z"/>
    </g>
    <g>
     <path d="m427.09,842.73q7.6,0.32 13.07,4.14q4.45,3.05 5.45,9.29q1.45,9.61 -2.19,29.11q-2.53,12.97 -6.72,14.75l-28.52,-4.25q-3.65,-3.26 -4.09,-6.42q-0.47,-2.63 0.72,-7.1q0.5,-1.9 1.27,-4.13q0.72,-2.13 2.84,-7.33q0.44,-1.2 0.59,-2.07q0.19,-0.97 0.23,-2.41q-0.22,-7.82 0.09,-9.82q0.38,-3.58 1.52,-5.85q4.37,-7.83 15.73,-7.91l0.01,0z"/>
    </g>
    <g fill="#68868f">
     <path d="m376.45,935.63l14.05,12.53q14.98,1.23 12.76,28.09q-1.01,23.5 -5.78,48.4l-5.68,22.59l-4.23,42.33q-9.35,-18.96 -10.83,10.53q-14.48,-36.32 -18.54,-68.98q-10.18,-28.54 -7.23,-51.56q7.98,-34.38 25.24,-43.84l0.24,-0.09z"/>
    </g>
    <g fill="#cdf4ff">
     <path d="m377.21,933.84l27.92,18.85l-1.06,12.48c-5.87,-1.52 -16.85,-6.02 -20.4,-8.55c-3.34,-2.38 -8.48,-7.27 -15.31,-14.86l8.85,-7.92z"/>
     <path d="m412.85,880.81l20.75,11.22q-4.23,2.57 -2.85,4.08q0.46,0.71 2.04,1.64l7.42,3.96q0.83,0.32 1.32,2.37q0.35,0.49 1.36,1.06q1.82,2.02 49.05,14.26q0.6,3.54 -0.13,5.61q-1.24,3.94 -9.33,3.76q-3.45,-0.02 -9.43,-0.75l-25.1,-3.48q-6.53,-0.64 -13.1,-0.24l5.38,4.8q-2.92,4.94 -7.17,9.27q-7.6,7.58 -21.67,17.06q-7.81,4.95 -10.28,3.16q-2.05,-0.84 -3.46,-7.39q-13.35,-8.07 -17.08,-11.25q-4.24,-3.45 -3.74,-6.08q0.16,-1.01 0.87,-2.2l4.17,-6.54q1.09,-2.07 1.73,-4.13q0.74,-2.41 1.03,-4.83q0.55,-10.62 1,-11.78q0.69,-3.67 2.56,-6.47q2.59,-3.81 8.77,-7.22q8.83,-4.57 14.38,-5.63l1.47,-4.16l0.04,-0.1z"/>
    </g>
    <g fill="#ffba9a">
     <path d="m444.76,905.9q2.02,0.06 3.89,1.07q1.94,1.09 2.69,2.53q0.52,0.97 0.52,2.62q0.01,5.89 -0.36,7.05q-0.33,1.57 -1.28,1.37q-0.42,-0.09 -0.94,-0.43q-0.27,-0.11 -2.27,-1.79q-0.36,-0.26 -0.5,-0.15q-0.11,0.05 -0.15,0.39q-0.09,1.91 -0.21,2.53q-0.13,0.78 -0.36,1.62q-0.57,2.06 -1.5,3.52q-1.45,2.39 -4.85,2.89l-4.78,-3.96q0.62,-1.51 0.94,-3.16q0.12,-0.31 0.96,-5.94q0.21,-1.24 0.45,-2.3q0.96,-4.26 2.68,-5.89q1.97,-1.99 5.05,-1.97l0.02,0z"/>
     <path d="m428.51,849.24q6.57,0.2 11.18,5.7q0.93,1.33 1.25,3.07q0.13,0.67 0.2,1.59q0.1,4.84 0.25,4.61q0.11,0.4 0.34,0.64q0.98,0.74 1.08,0.97q0.23,0.31 0.39,0.98q0.34,1.77 0.08,4.51q-0.27,2.63 -0.91,3.56q-0.26,0.37 -0.57,0.54l-1.56,0.55q-0.41,0.21 -0.64,0.53q-0.14,-0.2 -2.27,4.87q-0.51,1.01 -1.11,1.89q-1.32,2.05 -5.12,5.92l-8.03,15.41q-4.95,-6.82 -6.58,-11.74q-1.19,-3.62 -1.3,-7.38q-0.04,-1.87 0.17,-3.12q0.19,-1.18 0.8,-1.96q0.03,-0.18 -0.03,-0.41q-1.06,-2.41 -1.05,-4.11q-2.46,0.27 -3.58,-2.58q-1.52,-4.08 -1.35,-7.41q0.12,-2.37 2.95,-2.29q0.55,-8.21 3.65,-10.64q4.34,-3.59 11.74,-3.7l0.02,0z"/>
     <path d="m488.37,912.25q1.49,-2.22 3.58,-2.61q1.82,-0.28 3.41,1.56q2.25,2.63 3.25,6.64q0.78,3.24 -0.51,5.31q-1,1.74 -4.31,3.65q-1.52,0.55 -2.88,-0.87q-1.22,-1.42 -1.2,-3.3q0.03,-0.71 0.25,-1.27q0.11,-0.28 0.27,-0.55q0.68,-0.97 0.76,-1.18q0.21,-0.41 0.15,-0.69q-0.05,-0.25 -0.33,-0.44l-1.5,-0.72q-0.36,-0.22 -0.44,-0.42q-0.07,-0.15 -0.03,-0.4q-0.05,0.03 0.31,-1.08q0.06,-0.27 0.01,-0.46q-0.04,-0.17 -0.18,-0.33q-0.77,-0.73 -0.82,-0.86q-0.18,-0.26 -0.22,-0.6q-0.06,-0.58 0.42,-1.36l0.01,-0.02z"/>
    </g>
    <g fill="#ff0c00" fill-opacity="0.09">
     <path d="m417.06,881.59q5.4,7.2 7.78,8.26q1.38,0.72 2.8,0.47q1.25,-0.18 3.44,-1.49l-7.4,7.52l-6.62,-14.75l0,-0.01z"/>
    </g>
    <g>
     <path d="m431.77,893.48l7.82,3.63q-2.68,6.33 -4.58,8.59q-1.12,1.41 -2.39,2.21q-0.64,0.41 -1.41,0.79l-3.21,1.48q-0.87,0.46 -1.37,0.95q-1.29,1.21 -1.5,4.01q-0.59,-10.56 0.7,-14.02q1.23,-4.35 5.92,-7.62m-6.62,21.66q0.04,0.87 0.03,1q-0.03,0.06 -0.04,-0.31q-0.01,-0.29 0.01,-0.68l0,-0.01z"/>
    </g>
    <g fill-opacity="0.13">
     <path d="m407.16,913.36l4.03,21.72l-0.1,3.13l4.34,-2.66l16.43,-9.55l0.03,-0.01l0,0q-6.02,6.89 -10.52,9.57q-4.03,2.55 -11.85,3.8q-0.68,-13.55 -2.36,-26zm-17.51,-5.53l7.75,42.74l2.64,8.83l-4.7,-9.44l-5.68,-42.08l-0.01,-0.05z"/>
    </g>
    <g fill-opacity="0.15">
     <path d="m390.65,967.66l-1.44,101.54q5.04,-42.81 5.28,-63.09q0.15,-10.45 -0.79,-19.52q-0.77,-7.67 -3.04,-18.9l-0.01,-0.03z"/>
    </g>
    <g fill="#fcb826">
     <path d="m492.26,917.67l-0.18,3.52q-1.49,10.64 -9.53,17.15q-8.1,6.5 -19.24,5.49q-10.64,-1.49 -17.15,-9.53q-2.09,-2.6 -3.46,-5.68l-1.17,-3.18q-0.97,-3.28 -1.04,-6.86q0.08,-11.01 7.26,-18.44q7.18,-7.43 18.17,-7.9q11.01,0.08 18.44,7.26q7.43,7.18 7.9,18.17z"/>
    </g>
    <g fill="#ddad48">
     <path d="m488.21,917.8l-0.15,2.97q-1.26,8.97 -8.04,14.46q-6.83,5.49 -16.23,4.64q-8.98,-1.26 -14.47,-8.04q-1.75,-2.2 -2.91,-4.8l-0.99,-2.68q-0.82,-2.76 -0.88,-5.79q0.07,-9.28 6.13,-15.55q6.05,-6.27 15.32,-6.66q9.29,0.07 15.56,6.12q6.26,6.06 6.66,15.33z"/>
    </g>
    <g fill="#fdd37a">
     <path d="m487.67,917.82l-0.14,2.89q-1.23,8.76 -7.85,14.12q-6.66,5.35 -15.83,4.52q-8.76,-1.23 -14.12,-7.85q-1.71,-2.13 -2.84,-4.67l-0.96,-2.61q-0.8,-2.7 -0.86,-5.65q0.07,-9.06 5.97,-15.18q5.91,-6.11 14.96,-6.5q9.05,0.07 15.17,5.98q6.11,5.9 6.5,14.95z"/>
    </g>
    <g fill="#ddad48">
     <path d="m468.39,929.92l-0.01,-2.2q1.83,-0.76 2.97,-2.4q1.14,-1.64 1.13,-3.74q0,-1.34 -0.53,-2.55q-0.53,-1.18 -1.42,-2.06q-0.89,-0.88 -2.1,-1.4q-1.18,-0.52 -2.53,-0.52l-0.19,0q-0.4,-0.06 -0.66,-0.36q-0.26,-0.29 -0.26,-0.72q-0.01,-0.45 0.32,-0.78q0.33,-0.33 0.78,-0.33q0.46,-0.01 0.79,0.32q0.33,0.33 0.33,0.79l5.44,-0.03q0,-1.04 -0.33,-1.99q-0.3,-0.92 -0.86,-1.74q-0.53,-0.78 -1.28,-1.4q-0.76,-0.59 -1.68,-0.94l-0.01,-2.49l-5.51,0.02l0.02,2.78q-1.57,0.86 -2.52,2.41q-0.94,1.51 -0.93,3.41q0,1.34 0.53,2.55q0.53,1.18 1.42,2.06q0.89,0.88 2.1,1.4q1.18,0.52 2.53,0.51l0.19,0q0.4,0.07 0.66,0.39q0.26,0.3 0.26,0.69q0.01,0.46 -0.32,0.82q-0.33,0.33 -0.78,0.33q-0.46,0 -0.79,-0.35q-0.33,-0.33 -0.33,-0.79l-5.44,0.02q0,1.9 0.96,3.44q0.96,1.54 2.53,2.38l0.01,2.49l5.51,-0.02z"/>
    </g>
    <g fill="#f9b118">
     <path d="m468.85,929.65l-0.01,-2.2q1.83,-0.76 2.97,-2.4q1.14,-1.64 1.14,-3.74q-0.01,-1.34 -0.54,-2.56q-0.53,-1.17 -1.42,-2.05q-0.88,-0.88 -2.1,-1.4q-1.18,-0.52 -2.53,-0.52l-0.19,0q-0.4,-0.06 -0.66,-0.36q-0.26,-0.29 -0.26,-0.72q-0.01,-0.45 0.32,-0.78q0.33,-0.33 0.79,-0.33q0.45,-0.01 0.78,0.32q0.33,0.33 0.33,0.79l5.44,-0.03q0,-1.04 -0.33,-1.99q-0.3,-0.92 -0.86,-1.74q-0.53,-0.78 -1.28,-1.4q-0.76,-0.59 -1.68,-0.94l-0.01,-2.5l-5.51,0.03l0.02,2.78q-1.57,0.86 -2.52,2.41q-0.94,1.51 -0.93,3.41q0,1.34 0.53,2.55q0.53,1.18 1.42,2.06q0.89,0.88 2.1,1.4q1.18,0.52 2.53,0.51l0.19,0q0.4,0.07 0.66,0.39q0.26,0.3 0.27,0.69q0,0.46 -0.33,0.82q-0.33,0.33 -0.78,0.33q-0.46,0 -0.79,-0.35q-0.33,-0.33 -0.33,-0.79l-5.44,0.02q0,1.9 0.96,3.44q0.96,1.54 2.53,2.38l0.01,2.49l5.51,-0.02z"/>
    </g>
    <g fill="#cdf4ff">
     <path d="m412.62,880.87l0,0q2.72,1 3.71,2.08q1.22,1.05 2.64,4.45q0.4,0.92 1.26,3.26l3.06,15.48l-12.04,-18.33l1.37,-6.94"/>
    </g>
    <g>
     <path d="m636.98,1103.6l-119,0.23l-0.38,-192.89l119,-0.23l0.38,192.88l0,0.01zm-68.72,19.72c-0.01,-5.3 4.24,-9.61 9.5,-9.62c5.25,-0.01 9.52,4.28 9.53,9.58c0.01,5.31 -4.24,9.62 -9.5,9.63c-5.25,0.01 -9.52,-4.29 -9.53,-9.59m76.76,8.57l0.02,0l-0.45,-231.16l0,0l0,-0.05l-0.01,0c-0.03,-5.28 -4.32,-9.54 -9.61,-9.53c-0.04,0 -0.07,0 -0.1,0l0,0l-21.56,0.04l-62.9,0.12l-31.24,0.07c-5.28,0.01 -9.55,4.29 -9.57,9.56l0,0l0.45,231.2l0.01,0c0,0.1 -0.01,0.2 -0.01,0.31c0.01,5.17 4.36,9.35 9.73,9.34c0.08,0 0.15,-0.01 0.23,-0.01l0,0.01l115.57,-0.22l0,0c5.22,-0.01 9.46,-4.21 9.45,-9.39c0,-0.1 -0.01,-0.2 -0.02,-0.3"/>
    </g>
    <g fill="#fff">
     <path d="m636.6,910.76l0.37,192.88l-119,0.23l-0.37,-192.89l119,-0.22z"/>
    </g>
    <g fill="#a19a89">
     <path d="m577.75,1113.7c5.26,-0.01 9.52,4.28 9.53,9.59c0.01,5.3 -4.24,9.61 -9.49,9.62c-5.26,0.01 -9.52,-4.29 -9.53,-9.59c-0.01,-5.3 4.24,-9.61 9.49,-9.62z"/>
    </g>
    <g fill="#ee1d52">
     <path d="m532.96,1053.9l0.4,1.06c-0.05,-0.12 -0.2,-0.48 -0.4,-1.06zm14.42,-24.77c0.51,-5.8 2.7,-9.09 6.88,-12.53c6.02,-4.65 13.73,-2.32 13.73,-2.32l-0.41,-15.08c1.86,-0.09 3.72,-0.03 5.56,0.2l0.52,19.39s-7.71,-2.32 -13.72,2.33c-4.18,3.43 -6.37,6.72 -6.89,12.53c0.06,3.13 0.73,7.23 3.43,10.69c-0.66,-0.33 -1.32,-0.71 -2.01,-1.13c-5.8,-3.84 -7,-9.83 -7.1,-14.08l0.01,0zm56.61,-58.81c-4.34,-4.69 -6.07,-9.53 -6.74,-12.92l5.29,-0.15c0,0 -0.8,9 7.12,17.59l0.12,0.11c-2.12,-1.29 -4.07,-2.86 -5.79,-4.63zm25.89,12.97l0.52,19s-6.77,-0.1 -11.82,-1.28c-7.04,-1.67 -11.6,-4.41 -11.6,-4.41s-3.17,-1.96 -3.41,-2.09l1.07,39.25c0.05,2.19 -0.38,7.66 -2,12.26c-2.11,6.01 -5.54,10.03 -6.17,10.84c0,0 -4.15,5.41 -11.6,9.17c-6.72,3.38 -12.71,3.48 -14.5,3.6c0,0 -10.33,0.69 -19.81,-5.35c-2.06,-1.34 -3.98,-2.87 -5.75,-4.56l0.05,0.04c9.48,6.07 19.81,5.35 19.81,5.35c1.78,-0.12 7.78,-0.21 14.5,-3.6c7.45,-3.76 11.6,-9.17 11.6,-9.17c0.63,-0.81 4.06,-4.83 6.17,-10.84c1.62,-4.6 2.05,-10.07 1.99,-12.26l-1.06,-39.23c0.26,0.14 3.41,2.1 3.41,2.1s4.56,2.73 11.6,4.4c5.05,1.19 11.82,1.28 11.82,1.28l-0.4,-14.88c2.33,0.47 4.31,0.55 5.59,0.38l-0.01,0z"/>
    </g>
    <g>
     <path d="m624.29,982.92l0.4,14.89s-6.76,-0.1 -11.82,-1.28c-7.04,-1.67 -11.6,-4.41 -11.6,-4.41s-3.17,-1.96 -3.4,-2.09l1.06,39.25c0.06,2.18 -0.38,7.66 -1.99,12.26c-2.12,6.01 -5.54,10.03 -6.17,10.83c0,0 -4.16,5.42 -11.61,9.17c-6.72,3.39 -12.71,3.49 -14.5,3.6c0,0 -10.32,0.7 -19.81,-5.34l-0.04,-0.05c-1.01,-0.97 -1.97,-1.99 -2.85,-3.06c-3.08,-3.7 -5.01,-8.11 -5.51,-9.38l0,-0.02c-0.8,-2.19 -2.48,-7.49 -2.41,-12.63c0.12,-9.09 3.04,-14.77 3.81,-16.19c2.04,-3.86 4.76,-7.35 7.98,-10.3c2.86,-2.54 6.13,-4.6 9.64,-6.07c3.81,-1.73 7.92,-2.7 12.1,-2.88l0.41,15.07s-7.71,-2.33 -13.72,2.32c-4.18,3.44 -6.37,6.73 -6.89,12.53c0.09,4.25 1.3,10.24 7.12,14.11c0.69,0.42 1.35,0.79 2.01,1.13c1.03,1.32 2.27,2.47 3.69,3.4c5.7,3.55 10.38,3.68 16.31,1.12c3.95,-1.71 6.85,-5.39 8.13,-9.45c0.82,-2.53 0.72,-5.04 0.65,-7.64l-2,-74l13.94,-0.38c0.67,3.4 2.38,8.24 6.74,12.93c1.75,1.77 3.69,3.34 5.8,4.63c0.62,0.66 3.84,3.83 7.94,5.74c2.09,0.99 4.32,1.72 6.59,2.19z"/>
    </g>
    <g fill="#000fff">
     <path d="m530.78,1042.9l0.38,0.99c-0.05,-0.12 -0.2,-0.46 -0.38,-0.99z"/>
    </g>
    <g fill="#69c9d0">
     <path d="m555.48,1002.1c-3.54,1.47 -6.79,3.53 -9.65,6.07c-3.24,2.95 -5.93,6.46 -7.97,10.33c-0.77,1.41 -3.69,7.07 -3.81,16.19c-0.07,5.16 1.63,10.44 2.41,12.62l0,0.03c0.5,1.24 2.43,5.67 5.5,9.38c0.89,1.07 1.85,2.09 2.85,3.06c-3.21,-2.1 -6.07,-4.65 -8.55,-7.58c-3.05,-3.66 -4.98,-8.05 -5.48,-9.34l0,-0.04c-0.8,-2.19 -2.5,-7.49 -2.41,-12.65c0.12,-9.1 3.04,-14.78 3.81,-16.19c2.04,-3.87 4.73,-7.38 7.98,-10.33c2.86,-2.54 6.13,-4.6 9.64,-6.07c2.21,-0.99 4.51,-1.72 6.87,-2.23c3.56,-0.72 7.2,-0.87 10.82,-0.46l0.12,4.32c-4.21,0.19 -8.32,1.16 -12.13,2.89z"/>
     <path d="m597.25,957.43l-13.94,0.38l2.01,74c0.07,2.6 0.13,5.11 -0.66,7.64c-1.31,4.03 -4.2,7.74 -8.13,9.45c-5.93,2.58 -10.63,2.42 -16.3,-1.12c-1.42,-0.91 -2.66,-2.06 -3.7,-3.38c4.83,2.4 9.08,2.24 14.3,-0.02c3.95,-1.71 6.85,-5.42 8.13,-9.45c0.82,-2.53 0.72,-5.04 0.65,-7.64l-2,-74l19.26,-0.52c-0.03,0 -0.19,1.84 0.38,4.66zm26.94,21.38l0.11,4.11c-2.27,-0.47 -4.5,-1.2 -6.59,-2.19c-4.07,-1.89 -7.3,-5.08 -7.94,-5.74c0.73,0.45 1.46,0.84 2.24,1.22c4.99,2.3 9.82,2.92 12.18,2.6z"/>
    </g>
    <g fill="#fff">
     <path d="m591.42,1018.8m-1.97,48.12l0,0l0,0l0,0l0,0l0,0l0,0l0,0l0,0z"/>
     <path d="m590.46,1042.2l0,0l0,0l0,0l0,0l0,0l0,0l0,0l0,0l0,0m-0.06,1.43l0,0l0,0l0,0l0,0l0,0l0,0l0,0l0,0z"/>
     <path d="m590.53,1040.5l0,0l0,0l0,0l0,0l0,0l0,0l0,0l0,0l0,0m-0.2,4.81l0,0l0,0l0,0l0,0l0,0l0,0l0,0l0,0z"/>
    </g>
   </g>
  </symbol>
 </defs>
 <g class="layer">
  <title>Layer 1</title>
  <rect fill="#80cce4" height="99.13" id="svg_118" stroke="#80cce4" width="349.13" x="0.12" y="0.43"/>
  <use id="svg_119" transform="matrix(0.337304 0 0 0.197034 390.666 -135.502)" x="-980.92" xlink:href="#svg_114" y="704.8"/>
 </g>
</svg>